<svg width="38" height="38" viewBox="0 0 38 38" fill="none" xmlns="http://www.w3.org/2000/svg">
<path d="M37.375 19C37.375 15.3658 36.2973 11.8132 34.2783 8.7914C32.2592 5.76964 29.3894 3.41447 26.0318 2.02372C22.6742 0.632954 18.9796 0.26907 15.4152 0.978073C11.8508 1.68708 8.5767 3.43712 6.00691 6.00691C3.43712 8.5767 1.68708 11.8508 0.978073 15.4152C0.26907 18.9796 0.632954 22.6742 2.02372 26.0318C3.41447 29.3894 5.76964 32.2592 8.7914 34.2783C11.8132 36.2973 15.3658 37.375 19 37.375C23.8734 37.375 28.5471 35.4391 31.9931 31.9931C35.4391 28.5471 37.375 23.8734 37.375 19ZM29.5 20.3125H13.5531L20.8769 27.6722L19 29.5L8.5 19L19 8.5L20.8769 10.3732L13.5531 17.6875H29.5V20.3125Z" fill="black"/>
</svg>
