<svg width="42" height="44" viewBox="0 0 42 44" fill="none" xmlns="http://www.w3.org/2000/svg">
<path d="M4.82188 43.9544C3.62289 43.9544 2.59684 43.5278 1.74374 42.6747C0.890644 41.8216 0.463367 40.7949 0.461914 39.5944V4.7147C0.461914 3.51571 0.88919 2.48967 1.74374 1.63657C2.5983 0.783466 3.62434 0.35619 4.82188 0.354736H22.2617L35.3416 13.4346V19.9746C34.506 20.1562 33.7248 20.4469 32.9982 20.8466C32.2715 21.2462 31.5993 21.7549 30.9817 22.3726L17.9018 35.398V43.9544H4.82188ZM22.2617 43.9544V37.2509L34.3061 25.261C34.6331 24.934 34.9965 24.6979 35.3961 24.5525C35.7958 24.4072 36.1955 24.3345 36.5951 24.3345C37.0311 24.3345 37.449 24.4167 37.8486 24.5809C38.2483 24.7451 38.6116 24.99 38.9386 25.3155L40.9551 27.332C41.2458 27.659 41.4732 28.0224 41.6374 28.422C41.8017 28.8217 41.883 29.2213 41.8816 29.621C41.8816 30.0207 41.8089 30.4298 41.6636 30.8483C41.5183 31.2669 41.2821 31.6389 40.9551 31.9645L28.9652 43.9544H22.2617ZM36.5951 31.7465L38.6116 29.621L36.5951 27.6045L34.5241 29.6755L36.5951 31.7465ZM20.0818 15.6146H30.9817L20.0818 4.7147V15.6146Z" fill="url(#paint0_linear_1578_1657)"/>
<defs>
<linearGradient id="paint0_linear_1578_1657" x1="21.1718" y1="0.354738" x2="78.8319" y2="55.7129" gradientUnits="userSpaceOnUse">
<stop stop-color="#AA5BFF"/>
<stop offset="0.808119" stop-color="#F317FF"/>
</linearGradient>
</defs>
</svg>
