<svg width="34" height="32" viewBox="0 0 34 32" fill="currentColor" xmlns="http://www.w3.org/2000/svg">
<path d="M17.1666 26.4167L17 26.5833L16.8166 26.4167C8.89998 19.2333 3.66665 14.4833 3.66665 9.66667C3.66665 6.33333 6.16665 3.83333 9.49998 3.83333C12.0666 3.83333 14.5666 5.5 15.45 7.76667H18.55C19.4333 5.5 21.9333 3.83333 24.5 3.83333C27.8333 3.83333 30.3333 6.33333 30.3333 9.66667C30.3333 14.4833 25.1 19.2333 17.1666 26.4167ZM24.5 0.5C21.6 0.5 18.8166 1.85 17 3.96667C15.1833 1.85 12.4 0.5 9.49998 0.5C4.36665 0.5 0.333313 4.51667 0.333313 9.66667C0.333313 15.95 5.99998 21.1 14.5833 28.8833L17 31.0833L19.4166 28.8833C28 21.1 33.6666 15.95 33.6666 9.66667C33.6666 4.51667 29.6333 0.5 24.5 0.5Z" fill="currentColor"/>
</svg>
