<svg width="139" height="60" viewBox="0 0 420 280" fill="none" xmlns="http://www.w3.org/2000/svg">
<path d="M183.136 251.767C186.192 253.079 189.732 251.655 191.028 248.592L245.735 119.35C246.889 116.623 245.882 113.463 243.363 111.906L99.7152 23.1537C96.8962 21.412 93.1989 22.2853 91.4572 25.1043L3.65811 167.209C1.73136 170.327 3.02679 174.43 6.3951 175.876L183.136 251.767Z" fill="url(#paint0_linear_1450_3084)"/>
<path d="M182.153 249.91C184.826 251.89 188.598 251.318 190.564 248.635L273.517 135.43C275.266 133.042 275.013 129.734 272.919 127.641L153.521 8.24269C151.178 5.89955 147.379 5.89955 145.036 8.24269L26.9208 126.358C24.3288 128.95 24.6465 133.24 27.5921 135.422L182.153 249.91Z" fill="url(#paint1_linear_1450_3084)"/>
<rect width="180" height="180" rx="6" transform="matrix(0.707107 -0.707107 -0.707107 -0.707107 185.279 254.558)" fill="url(#paint2_linear_1450_3084)"/>
<path d="M204.76 101.744V152H194.68V119.312L181.216 152H173.584L160.048 119.312V152H149.968V101.744H161.416L177.4 139.112L193.384 101.744H204.76ZM252.67 131.192C252.67 132.632 252.574 133.928 252.382 135.08H223.222C223.462 137.96 224.47 140.216 226.246 141.848C228.022 143.48 230.206 144.296 232.798 144.296C236.542 144.296 239.206 142.688 240.79 139.472H251.662C250.51 143.312 248.302 146.48 245.038 148.976C241.774 151.424 237.766 152.648 233.014 152.648C229.174 152.648 225.718 151.808 222.646 150.128C219.622 148.4 217.246 145.976 215.518 142.856C213.838 139.736 212.998 136.136 212.998 132.056C212.998 127.928 213.838 124.304 215.518 121.184C217.198 118.064 219.55 115.664 222.574 113.984C225.598 112.304 229.078 111.464 233.014 111.464C236.806 111.464 240.19 112.28 243.166 113.912C246.19 115.544 248.518 117.872 250.15 120.896C251.83 123.872 252.67 127.304 252.67 131.192ZM242.23 128.312C242.182 125.72 241.246 123.656 239.422 122.12C237.598 120.536 235.366 119.744 232.726 119.744C230.23 119.744 228.118 120.512 226.39 122.048C224.71 123.536 223.678 125.624 223.294 128.312H242.23ZM282.995 111.536C287.747 111.536 291.587 113.048 294.515 116.072C297.443 119.048 298.907 123.224 298.907 128.6V152H288.827V129.968C288.827 126.8 288.035 124.376 286.451 122.696C284.867 120.968 282.707 120.104 279.971 120.104C277.187 120.104 274.979 120.968 273.347 122.696C271.763 124.376 270.971 126.8 270.971 129.968V152H260.891V112.112H270.971V117.08C272.315 115.352 274.019 114.008 276.083 113.048C278.195 112.04 280.499 111.536 282.995 111.536Z" fill="white"/>
<path d="M321.093 120.392V139.688C321.093 141.032 321.405 142.016 322.029 142.64C322.701 143.216 323.805 143.504 325.341 143.504H330.021V152H323.685C315.189 152 310.941 147.872 310.941 139.616V120.392H306.189V112.112H310.941V102.248H321.093V112.112H330.021V120.392H321.093ZM355.847 152.648C352.007 152.648 348.551 151.808 345.479 150.128C342.407 148.4 339.983 145.976 338.207 142.856C336.479 139.736 335.615 136.136 335.615 132.056C335.615 127.976 336.503 124.376 338.279 121.256C340.103 118.136 342.575 115.736 345.695 114.056C348.815 112.328 352.295 111.464 356.135 111.464C359.975 111.464 363.455 112.328 366.575 114.056C369.695 115.736 372.143 118.136 373.919 121.256C375.743 124.376 376.655 127.976 376.655 132.056C376.655 136.136 375.719 139.736 373.847 142.856C372.023 145.976 369.527 148.4 366.359 150.128C363.239 151.808 359.735 152.648 355.847 152.648ZM355.847 143.864C357.671 143.864 359.375 143.432 360.959 142.568C362.591 141.656 363.887 140.312 364.847 138.536C365.807 136.76 366.287 134.6 366.287 132.056C366.287 128.264 365.279 125.36 363.263 123.344C361.295 121.28 358.871 120.248 355.991 120.248C353.111 120.248 350.687 121.28 348.719 123.344C346.799 125.36 345.839 128.264 345.839 132.056C345.839 135.848 346.775 138.776 348.647 140.84C350.567 142.856 352.967 143.864 355.847 143.864ZM400.177 152.648C396.913 152.648 393.985 152.072 391.393 150.92C388.801 149.72 386.737 148.112 385.201 146.096C383.713 144.08 382.897 141.848 382.753 139.4H392.905C393.097 140.936 393.841 142.208 395.137 143.216C396.481 144.224 398.137 144.728 400.105 144.728C402.025 144.728 403.513 144.344 404.569 143.576C405.673 142.808 406.225 141.824 406.225 140.624C406.225 139.328 405.553 138.368 404.209 137.744C402.913 137.072 400.825 136.352 397.945 135.584C394.969 134.864 392.521 134.12 390.601 133.352C388.729 132.584 387.097 131.408 385.705 129.824C384.361 128.24 383.689 126.104 383.689 123.416C383.689 121.208 384.313 119.192 385.561 117.368C386.857 115.544 388.681 114.104 391.033 113.048C393.433 111.992 396.241 111.464 399.457 111.464C404.209 111.464 408.001 112.664 410.833 115.064C413.665 117.416 415.225 120.608 415.513 124.64H405.865C405.721 123.056 405.049 121.808 403.849 120.896C402.697 119.936 401.137 119.456 399.169 119.456C397.345 119.456 395.929 119.792 394.921 120.464C393.961 121.136 393.481 122.072 393.481 123.272C393.481 124.616 394.153 125.648 395.497 126.368C396.841 127.04 398.929 127.736 401.761 128.456C404.641 129.176 407.017 129.92 408.889 130.688C410.761 131.456 412.369 132.656 413.713 134.288C415.105 135.872 415.825 137.984 415.873 140.624C415.873 142.928 415.225 144.992 413.929 146.816C412.681 148.64 410.857 150.08 408.457 151.136C406.105 152.144 403.345 152.648 400.177 152.648Z" fill="black"/>
<defs>
<linearGradient id="paint0_linear_1450_3084" x1="360.5" y1="55" x2="126.677" y2="-242.27" gradientUnits="userSpaceOnUse">
<stop stop-color="#FFB35B"/>
<stop offset="0.808119" stop-color="#F317FF"/>
</linearGradient>
<linearGradient id="paint1_linear_1450_3084" x1="229.249" y1="211.25" x2="248.959" y2="-146.907" gradientUnits="userSpaceOnUse">
<stop stop-color="#FFB35B"/>
<stop offset="0.808119" stop-color="#F317FF"/>
</linearGradient>
<linearGradient id="paint2_linear_1450_3084" x1="90" y1="5.07287e-06" x2="328.233" y2="240.759" gradientUnits="userSpaceOnUse">
<stop stop-color="#AA5BFF"/>
<stop offset="0.808119" stop-color="#F317FF"/>
</linearGradient>
</defs>
</svg>
