<svg width="48" height="49" viewBox="0 0 48 49" fill="none" xmlns="http://www.w3.org/2000/svg">
<rect y="0.5" width="48" height="48" rx="8" fill="url(#paint0_linear_1061_5733)" fill-opacity="0.5"/>
<path d="M16.9307 33.1716C16.4607 34.1478 16.1637 34.7988 13.5467 34.8937C13.6215 32.3718 14.1035 32.1012 15.0666 31.6214C15.4707 31.4196 15.9743 31.1692 16.5191 30.7513L15.6076 29.589C15.1773 29.9194 14.7815 30.0928 14.399 30.2827C12.7938 31.0825 12.0373 31.8695 12.0373 35.6232L12.05 36.3871L12.7856 36.3707C16.7526 36.3707 17.4942 35.4752 18.2373 33.934C18.3997 33.5961 18.4903 33.3674 18.7649 32.9122L17.6551 31.9054C17.3228 32.3591 17.1148 32.7896 16.9307 33.1701V33.1716ZM28.5129 16.9473C26.8575 16.9473 25.5113 18.292 25.5113 19.9446C25.5113 21.5973 26.8583 22.9427 28.5129 22.9427C30.1675 22.9427 31.5145 21.5973 31.5145 19.9446C31.5145 18.292 30.1675 16.9473 28.5129 16.9473ZM28.5129 21.4418C27.6867 21.4418 27.014 20.7698 27.014 19.9454C27.014 19.1209 27.686 18.449 28.5129 18.449C29.3398 18.449 30.0118 19.1209 30.0118 19.9454C30.0118 20.7706 29.3398 21.4418 28.5129 21.4418ZM35.9687 13.225C35.9462 12.852 35.6499 12.5531 35.2765 12.5254C35.2765 12.5254 31.0887 12.2204 27.0596 13.7236C25.5876 14.273 24.376 15.1422 23.2453 16.46C22.3024 17.5588 21.3654 19.544 20.5385 21.1929C20.219 21.829 19.9136 22.4381 19.6547 22.9031H15.4916C15.2776 22.9031 15.0741 22.995 14.9319 23.1542L12.1884 26.1238C12.0133 26.3219 11.9549 26.597 12.0358 26.8481C12.1166 27.0993 12.3239 27.2906 12.5813 27.3489L17.0467 28.3684C17.3513 28.7437 17.8579 29.305 18.6691 30.2042L20.3611 32.0773L21.2719 35.9252C21.3317 36.1786 21.5196 36.3834 21.768 36.4634C21.8436 36.4873 21.9222 36.5 21.9993 36.5C22.1759 36.5 22.3487 36.438 22.4864 36.3199L25.2591 33.5647C25.4245 33.4235 25.5202 33.2157 25.5202 32.9974V29.1406C25.8929 28.9096 26.5537 28.5531 27.1756 28.2055C28.8699 27.26 31.4 26.082 32.4485 25.1507C33.9257 23.8396 34.463 22.8784 34.9913 21.4575C36.2471 18.0782 35.9814 13.4216 35.9687 13.225ZM33.5889 20.9365C33.128 22.1765 32.7104 22.918 31.4546 24.0325C30.5274 24.8554 27.9905 26.0371 26.4452 26.9004C25.292 27.544 24.6013 27.92 24.2982 28.1674C24.1238 28.3086 24.0228 28.5217 24.0228 28.7459V32.6529L22.4438 34.3862L21.771 31.5459C21.7418 31.424 21.6827 31.3112 21.5982 31.2177C20.2219 29.6944 18.143 27.3915 17.9836 27.2084C17.8796 27.0821 17.7352 26.9924 17.5728 26.955L14.1446 26.1717L15.8261 24.3965H20.0835C20.3439 24.3965 20.5856 24.2612 20.7211 24.0407C21.0504 23.5055 21.432 22.7431 21.875 21.8619C22.6249 20.3684 23.5573 18.3922 24.3805 17.4324C25.3534 16.2993 26.3404 15.587 27.5819 15.1236C30.3441 14.0928 33.1938 13.9844 34.4967 13.9942C34.5206 15.3725 34.469 18.5678 33.5882 20.9373L33.5889 20.9365Z" fill="white"/>
<defs>
<linearGradient id="paint0_linear_1061_5733" x1="24" y1="0.500001" x2="87.5287" y2="64.7025" gradientUnits="userSpaceOnUse">
<stop stop-color="#AA5BFF"/>
<stop offset="0.808119" stop-color="#F317FF"/>
</linearGradient>
</defs>
</svg>
