<svg width="48" height="49" viewBox="0 0 48 49" fill="none" xmlns="http://www.w3.org/2000/svg">
<path d="M24 4.5V8.5" stroke="#AA5BFF" stroke-width="3.75" stroke-linecap="round"/>
<path d="M24 40.5V44.5" stroke="#AA5BFF" stroke-width="3.75" stroke-linecap="round"/>
<path d="M4 24.5H8" stroke="#AA5BFF" stroke-width="3.75" stroke-linecap="round"/>
<path d="M40 24.5H44" stroke="#AA5BFF" stroke-width="3.75" stroke-linecap="round"/>
<path d="M12 36.5L12.6861 35.814" stroke="#AA5BFF" stroke-width="3.75" stroke-linecap="round"/>
<path d="M35.3135 13.1865L36.0001 12.5" stroke="#AA5BFF" stroke-width="3.75" stroke-linecap="round"/>
<path d="M36 36.5L35.314 35.814" stroke="#AA5BFF" stroke-width="3.75" stroke-linecap="round"/>
<path d="M12.6865 13.1865L12 12.5" stroke="#AA5BFF" stroke-width="3.75" stroke-linecap="round"/>
<path d="M30.5306 29.7544C30.7842 32.3706 30.9108 33.6788 30.1448 34.2602C29.3788 34.8418 28.2274 34.3116 25.9244 33.2512L25.3286 32.9768C24.674 32.6756 24.3468 32.5248 24 32.5248C23.6532 32.5248 23.326 32.6756 22.6714 32.9768L22.0756 33.2512C19.7727 34.3116 18.6212 34.8418 17.8551 34.2602C17.0891 33.6788 17.2159 32.3706 17.4694 29.7544L17.535 29.0776C17.607 28.3342 17.643 27.9624 17.5359 27.6178C17.4287 27.273 17.1904 26.9944 16.7139 26.4372L16.2801 25.93C14.6032 23.969 13.7648 22.9886 14.0574 22.0478C14.2694 21.3662 14.9732 21.0322 16.2801 20.6884M21.1532 17.9084C22.4198 15.6361 23.0532 14.5 24 14.5C24.9468 14.5 25.5802 15.6361 26.8468 17.9084L27.1746 18.4962C27.5344 19.1419 27.7144 19.4648 27.995 19.6778C28.2756 19.8908 28.6252 19.9699 29.3242 20.128L29.9604 20.272C32.4202 20.8286 33.65 21.1068 33.9426 22.0478C34.1538 22.7268 33.7758 23.4262 32.919 24.5" stroke="#AA5BFF" stroke-width="3.75" stroke-linecap="round"/>
</svg>
