<svg width="48" height="49" viewBox="0 0 48 49" fill="none" xmlns="http://www.w3.org/2000/svg">
<rect y="0.5" width="48" height="48" rx="8" fill="url(#paint0_linear_1061_5739)" fill-opacity="0.5"/>
<path d="M25.3333 12.5L27.6704 19.1666C27.9209 19.8812 28.0463 20.2386 28.2381 20.5399C28.4081 20.807 28.616 21.0409 28.8535 21.2321C29.1212 21.448 29.4389 21.589 30.0741 21.8708L36 24.5L30.0741 27.1292C29.4389 27.4111 29.1212 27.5521 28.8535 27.7679C28.616 27.9592 28.4081 28.193 28.2381 28.4601C28.0463 28.7613 27.9209 29.1188 27.6704 29.8334L25.3333 36.5L22.9963 29.8334C22.7457 29.1188 22.6204 28.7613 22.4285 28.4601C22.2585 28.193 22.0507 27.9592 21.8132 27.7679C21.5455 27.5521 21.2278 27.4111 20.5925 27.1292L14.6667 24.5L20.5925 21.8708C21.2278 21.589 21.5455 21.448 21.8132 21.2321C22.0507 21.0409 22.2585 20.807 22.4285 20.5399C22.6204 20.2386 22.7457 19.8812 22.9963 19.1666L25.3333 12.5Z" fill="white"/>
<path d="M14.6667 30.5V36.5M16 12.5V18.5M17.3333 33.5H12M18.6667 15.5H13.3333M25.3333 12.5L27.6704 19.1666C27.9209 19.8812 28.0463 20.2386 28.2381 20.5399C28.4081 20.807 28.616 21.0409 28.8535 21.2321C29.1212 21.448 29.4389 21.589 30.0741 21.8708L36 24.5L30.0741 27.1292C29.4389 27.4111 29.1212 27.5521 28.8535 27.7679C28.616 27.9592 28.4081 28.193 28.2381 28.4601C28.0463 28.7613 27.9209 29.1188 27.6704 29.8334L25.3333 36.5L22.9963 29.8334C22.7457 29.1188 22.6204 28.7613 22.4285 28.4601C22.2585 28.193 22.0507 27.9592 21.8132 27.7679C21.5455 27.5521 21.2278 27.4111 20.5925 27.1292L14.6667 24.5L20.5925 21.8708C21.2278 21.589 21.5455 21.448 21.8132 21.2321C22.0507 21.0409 22.2585 20.807 22.4285 20.5399C22.6204 20.2386 22.7457 19.8812 22.9963 19.1666L25.3333 12.5Z" stroke="white" stroke-width="2" stroke-linecap="round" stroke-linejoin="round"/>
<defs>
<linearGradient id="paint0_linear_1061_5739" x1="24" y1="0.500001" x2="87.5287" y2="64.7025" gradientUnits="userSpaceOnUse">
<stop stop-color="#AA5BFF"/>
<stop offset="0.808119" stop-color="#F317FF"/>
</linearGradient>
</defs>
</svg>
