<svg width="14" height="14" viewBox="0 0 14 14" fill="none" xmlns="http://www.w3.org/2000/svg">
<path d="M12.0657 2.35783C12.1551 2.33186 12.2493 2.32705 12.3409 2.34378C12.4325 2.36052 12.519 2.39833 12.5935 2.45424C12.6679 2.51015 12.7284 2.58262 12.77 2.66591C12.8116 2.74921 12.8333 2.84105 12.8333 2.93417L12.8328 6.26617C12.8326 6.3776 12.8014 6.48679 12.7427 6.58152C12.684 6.67626 12.6002 6.7528 12.5005 6.80262C12.4008 6.85243 12.2892 6.87353 12.1782 6.86358C12.0673 6.85363 11.9612 6.813 11.872 6.74625L10.9142 6.02583L8.47583 9.27383C8.33375 9.46286 8.12694 9.59284 7.895 9.63891C7.66306 9.68497 7.42228 9.64388 7.21875 9.5235L7.13125 9.46517L5.18467 8.00275L2.6075 11.4357C2.3625 11.7623 1.91625 11.8481 1.57092 11.6503L1.48692 11.5949C1.3312 11.4779 1.2235 11.3082 1.18398 11.1174C1.14446 10.9267 1.17584 10.7282 1.27225 10.5589L1.32767 10.4749L4.28925 6.53042C4.43127 6.34114 4.63819 6.21097 4.8703 6.16489C5.10241 6.11881 5.34336 6.16007 5.54692 6.28075L5.63383 6.33908L7.57983 7.80092L9.63433 5.06508L8.67358 4.3435C8.59042 4.28078 8.525 4.19751 8.48372 4.10188C8.44245 4.00624 8.42675 3.90152 8.43816 3.79798C8.44958 3.69445 8.48771 3.59566 8.54882 3.5113C8.60993 3.42695 8.69192 3.35994 8.78675 3.31683L8.86667 3.28767L12.0662 2.35725L12.0657 2.35783Z" fill="black"/>
</svg>
