<svg width="10" height="6" viewBox="0 0 10 6" fill="currentColor" xmlns="http://www.w3.org/2000/svg">
<path d="M4.47495 4.975L0.849951 1.35C0.799951 1.3 0.762618 1.246 0.737951 1.188C0.713285 1.13 0.700618 1.06733 0.699951 1C0.699951 0.866667 0.745951 0.75 0.837951 0.65C0.929951 0.55 1.05062 0.5 1.19995 0.5H8.79995C8.94995 0.5 9.07095 0.55 9.16295 0.65C9.25495 0.75 9.30062 0.866667 9.29995 1C9.29995 1.03333 9.24995 1.15 9.14995 1.35L5.52495 4.975C5.44162 5.05833 5.35828 5.11667 5.27495 5.15C5.19162 5.18333 5.09995 5.2 4.99995 5.2C4.89995 5.2 4.80829 5.18333 4.72495 5.15C4.64162 5.11667 4.55828 5.05833 4.47495 4.975Z" />
</svg>
