<svg width="48" height="49" viewBox="0 0 48 49" fill="none" xmlns="http://www.w3.org/2000/svg">
<path d="M29.5521 29.4245C27.6365 28.1063 25.3067 27.3333 22.7938 27.3333C16.7183 27.3333 11.7127 31.8523 11.043 37.6688C10.9956 38.0805 10.9719 38.2863 11.0552 38.4852C11.1234 38.6477 11.271 38.8107 11.4271 38.8958C11.6179 39 11.8514 39 12.3185 39H21.0109M27.8626 36.1428L30.9038 39L38 32.3333M29.5521 15.6667C29.5521 19.3486 26.5264 22.3333 22.7938 22.3333C19.0614 22.3333 16.0356 19.3486 16.0356 15.6667C16.0356 11.9848 19.0614 9 22.7938 9C26.5264 9 29.5521 11.9848 29.5521 15.6667Z" stroke="#AA5BFF" stroke-width="3" stroke-linecap="round" stroke-linejoin="round"/>
</svg>
