<svg width="139" height="33" viewBox="0 0 139 33" fill="none" xmlns="http://www.w3.org/2000/svg">
<path d="M18.26 8.644V24H15.18V14.012L11.066 24H8.734L4.598 14.012V24H1.518V8.644H5.016L9.9 20.062L14.784 8.644H18.26ZM32.6351 17.642C32.6351 18.082 32.6058 18.478 32.5471 18.83H23.6371C23.7104 19.71 24.0184 20.3993 24.5611 20.898C25.1038 21.3967 25.7711 21.646 26.5631 21.646C27.7071 21.646 28.5211 21.1547 29.0051 20.172H32.3271C31.9751 21.3453 31.3004 22.3133 30.3031 23.076C29.3058 23.824 28.0811 24.198 26.6291 24.198C25.4558 24.198 24.3998 23.9413 23.4611 23.428C22.5371 22.9 21.8111 22.1593 21.2831 21.206C20.7698 20.2527 20.5131 19.1527 20.5131 17.906C20.5131 16.6447 20.7698 15.5373 21.2831 14.584C21.7964 13.6307 22.5151 12.8973 23.4391 12.384C24.3631 11.8707 25.4264 11.614 26.6291 11.614C27.7878 11.614 28.8218 11.8633 29.7311 12.362C30.6551 12.8607 31.3664 13.572 31.8651 14.496C32.3784 15.4053 32.6351 16.454 32.6351 17.642ZM29.4451 16.762C29.4304 15.97 29.1444 15.3393 28.5871 14.87C28.0298 14.386 27.3478 14.144 26.5411 14.144C25.7784 14.144 25.1331 14.3787 24.6051 14.848C24.0918 15.3027 23.7764 15.9407 23.6591 16.762H29.4451ZM41.6372 11.636C43.0892 11.636 44.2626 12.098 45.1572 13.022C46.0519 13.9313 46.4992 15.2073 46.4992 16.85V24H43.4192V17.268C43.4192 16.3 43.1772 15.5593 42.6932 15.046C42.2092 14.518 41.5492 14.254 40.7132 14.254C39.8626 14.254 39.1879 14.518 38.6892 15.046C38.2052 15.5593 37.9632 16.3 37.9632 17.268V24H34.8832V11.812H37.9632V13.33C38.3739 12.802 38.8946 12.3913 39.5252 12.098C40.1706 11.79 40.8746 11.636 41.6372 11.636ZM53.0142 14.342V20.238C53.0142 20.6487 53.1095 20.9493 53.3002 21.14C53.5055 21.316 53.8428 21.404 54.3122 21.404H55.7422V24H53.8062C51.2102 24 49.9122 22.7387 49.9122 20.216V14.342H48.4602V11.812H49.9122V8.798H53.0142V11.812H55.7422V14.342H53.0142ZM63.3695 24.198C62.1961 24.198 61.1401 23.9413 60.2015 23.428C59.2628 22.9 58.5221 22.1593 57.9795 21.206C57.4515 20.2527 57.1875 19.1527 57.1875 17.906C57.1875 16.6593 57.4588 15.5593 58.0015 14.606C58.5588 13.6527 59.3141 12.9193 60.2675 12.406C61.2208 11.878 62.2841 11.614 63.4575 11.614C64.6308 11.614 65.6941 11.878 66.6475 12.406C67.6008 12.9193 68.3488 13.6527 68.8915 14.606C69.4488 15.5593 69.7275 16.6593 69.7275 17.906C69.7275 19.1527 69.4415 20.2527 68.8695 21.206C68.3121 22.1593 67.5495 22.9 66.5815 23.428C65.6281 23.9413 64.5575 24.198 63.3695 24.198ZM63.3695 21.514C63.9268 21.514 64.4475 21.382 64.9315 21.118C65.4301 20.8393 65.8261 20.4287 66.1195 19.886C66.4128 19.3433 66.5595 18.6833 66.5595 17.906C66.5595 16.7473 66.2515 15.86 65.6355 15.244C65.0341 14.6133 64.2935 14.298 63.4135 14.298C62.5335 14.298 61.7928 14.6133 61.1915 15.244C60.6048 15.86 60.3115 16.7473 60.3115 17.906C60.3115 19.0647 60.5975 19.9593 61.1695 20.59C61.7561 21.206 62.4895 21.514 63.3695 21.514ZM76.6508 24.198C75.6534 24.198 74.7588 24.022 73.9668 23.67C73.1748 23.3033 72.5441 22.812 72.0748 22.196C71.6201 21.58 71.3708 20.898 71.3268 20.15H74.4288C74.4874 20.6193 74.7148 21.008 75.1108 21.316C75.5214 21.624 76.0274 21.778 76.6288 21.778C77.2154 21.778 77.6701 21.6607 77.9928 21.426C78.3301 21.1913 78.4988 20.8907 78.4988 20.524C78.4988 20.128 78.2934 19.8347 77.8828 19.644C77.4868 19.4387 76.8488 19.2187 75.9688 18.984C75.0594 18.764 74.3114 18.5367 73.7248 18.302C73.1528 18.0673 72.6541 17.708 72.2288 17.224C71.8181 16.74 71.6128 16.0873 71.6128 15.266C71.6128 14.5913 71.8034 13.9753 72.1848 13.418C72.5808 12.8607 73.1381 12.4207 73.8568 12.098C74.5901 11.7753 75.4481 11.614 76.4308 11.614C77.8828 11.614 79.0414 11.9807 79.9068 12.714C80.7721 13.4327 81.2488 14.408 81.3368 15.64H78.3888C78.3448 15.156 78.1394 14.7747 77.7728 14.496C77.4208 14.2027 76.9441 14.056 76.3428 14.056C75.7854 14.056 75.3528 14.1587 75.0448 14.364C74.7514 14.5693 74.6048 14.8553 74.6048 15.222C74.6048 15.6327 74.8101 15.948 75.2208 16.168C75.6314 16.3733 76.2694 16.586 77.1348 16.806C78.0148 17.026 78.7408 17.2533 79.3128 17.488C79.8848 17.7227 80.3761 18.0893 80.7868 18.588C81.2121 19.072 81.4321 19.7173 81.4468 20.524C81.4468 21.228 81.2488 21.8587 80.8528 22.416C80.4714 22.9733 79.9141 23.4133 79.1808 23.736C78.4621 24.044 77.6188 24.198 76.6508 24.198Z" fill="black"/>
<path d="M105.5 0L125 16.5L105.5 33L86 16.5L105.5 0Z" fill="#E3E2E2"/>
<path d="M113 0L133 16.5L113 33L93 16.5L113 0Z" fill="#C6C2C2"/>
<path d="M119.5 0L139 16.5L119.5 33L100 16.5L119.5 0Z" fill="#A19D9D"/>
</svg>
