<svg width="14" height="14" viewBox="0 0 14 14" fill="none" xmlns="http://www.w3.org/2000/svg">
<path d="M0.360586 5.55245C0.360586 5.55245 0.360477 5.55209 0.360395 5.55174L0.34202 5.50353L0.360586 5.55245Z" fill="black"/>
<path d="M0.47171 4.46838L0.777359 4.26877C0.777523 4.26877 0.777687 4.26858 0.777878 4.26839L0.47171 4.46838Z" fill="black"/>
<path d="M13.1353 7.12212C13.1203 7.08285 13.1128 7.04143 13.1128 7C13.1128 6.95841 13.1203 6.91682 13.1354 6.87717L13.5966 5.66653L13.64 5.55245C13.6876 5.42765 13.7106 5.2975 13.7106 5.16947C13.7108 4.81439 13.534 4.47177 13.2229 4.26842L13.0698 4.16845L12.0351 3.49284C11.9649 3.44679 11.9135 3.37592 11.8916 3.29468L11.5211 1.9262C11.3933 1.45507 10.9666 1.13118 10.4827 1.13118C10.4644 1.13118 10.4462 1.13154 10.4279 1.13261L9.01737 1.20313V1.20296L8.99621 1.20351C8.91702 1.20351 8.8407 1.17671 8.77929 1.12727L7.74662 0.295478L7.67559 0.238357C7.47904 0.0796262 7.23891 -0.000162883 7.00039 1.17967e-06C6.76195 -0.000354289 6.52176 0.0796262 6.32508 0.238357L6.32535 0.238165L5.33537 1.03551L5.22165 1.12711C5.15996 1.17674 5.08337 1.20354 5.00454 1.20354L4.98614 1.20313L3.57643 1.1328L3.57553 1.13261C3.55365 1.13135 3.53446 1.13118 3.51805 1.13118C3.03404 1.13118 2.60742 1.45504 2.47959 1.9262L2.10911 3.29468C2.08707 3.37624 2.03547 3.44731 1.96479 3.49355L1.86274 3.56016L0.777359 4.26877C0.466434 4.47232 0.289875 4.81472 0.290039 5.16964C0.290039 5.29747 0.312981 5.42708 0.360395 5.55171L0.865297 6.87715L0.865379 6.87731C0.880363 6.9166 0.887965 6.95838 0.887965 6.99997C0.887965 7.04159 0.880473 7.08318 0.865379 7.12247L0.360586 8.44755L0.360668 8.44739C0.31309 8.57218 0.290039 8.70218 0.290039 8.83017C0.289875 9.18529 0.466434 9.52807 0.777797 9.73159L1.65876 10.3068L1.96504 10.5068C2.03566 10.5529 2.08707 10.6236 2.10911 10.7053L2.47959 12.0736C2.60731 12.5448 3.03412 12.8687 3.51805 12.8688C3.53446 12.8687 3.55234 12.8685 3.57143 12.8674L3.5309 12.8695L4.99213 12.7965H4.99141L5.00509 12.7963C5.08345 12.7963 5.1598 12.8231 5.22137 12.8728L6.32527 13.762H6.32535C6.52182 13.9204 6.76187 14.0002 7.00039 14C7.23882 14.0002 7.47896 13.9204 7.67553 13.7619L8.87431 12.7961L8.77951 12.8726C8.84111 12.8229 8.91727 12.7963 8.99572 12.7963L9.01212 12.7967L10.4392 12.8679L10.432 12.8676C10.4475 12.8683 10.4644 12.8687 10.4827 12.8688C10.9665 12.8687 11.3934 12.545 11.5212 12.0736L11.8916 10.7053C11.9137 10.6236 11.965 10.553 12.0355 10.507L13.2236 9.73123C13.5343 9.52769 13.7108 9.18529 13.7107 8.83034C13.7107 8.70231 13.6876 8.57216 13.6399 8.4472L13.1353 7.12212ZM12.4521 6.61686C12.4051 6.74024 12.3815 6.8702 12.3815 7C12.3815 7.12999 12.4051 7.25996 12.4521 7.38333L12.9566 8.70786L12.9567 8.70806C12.9721 8.74858 12.9793 8.78965 12.9793 8.83036C12.9792 8.94428 12.9229 9.05426 12.823 9.11942L11.6361 9.89445H11.6361C11.415 10.0387 11.2547 10.2594 11.1857 10.5143L10.8152 11.8826C10.7746 12.0337 10.6371 12.1376 10.4827 12.1374L10.4622 12.1368L10.457 12.1367L9.04953 12.0665H9.05051C9.03318 12.0654 9.01488 12.0651 8.99572 12.0649C8.7505 12.0649 8.51214 12.1488 8.32049 12.3032L8.22561 12.3798L7.2167 13.1925C7.15316 13.2438 7.07763 13.2687 7.00041 13.2687C6.9233 13.2687 6.84767 13.2438 6.78404 13.1925L5.68023 12.3032C5.48866 12.149 5.25041 12.0651 5.00511 12.0651C4.98868 12.0651 4.96948 12.0653 4.94753 12.0665V12.0667L3.5355 12.1372L3.53593 12.137L3.51811 12.1374C3.36383 12.1376 3.22618 12.0337 3.18558 11.8826L2.81513 10.5144C2.74611 10.2594 2.58579 10.0387 2.36466 9.89447L1.48387 9.31941L1.17778 9.11944C1.07798 9.05445 1.02157 8.94431 1.02138 8.8302C1.02146 8.78929 1.02862 8.74825 1.04396 8.70808L1.54875 7.38317L1.54867 7.38336C1.5957 7.25982 1.61927 7.13002 1.61927 7.00003C1.61927 6.87006 1.59581 6.7401 1.54867 6.61672L1.06258 5.34106L1.04402 5.29249C1.02857 5.25178 1.02143 5.21054 1.02132 5.16967C1.02151 5.05559 1.07784 4.94577 1.17762 4.88081L2.36472 4.1058L2.36491 4.10561C2.5859 3.96102 2.74608 3.74052 2.8151 3.48573L3.18555 2.11726C3.22607 1.9664 3.36391 1.8623 3.51808 1.86249L3.53183 1.86266L4.95125 1.93353L4.95278 1.93372C4.97 1.93443 4.98734 1.93482 5.00457 1.93498C5.24978 1.93498 5.48822 1.85123 5.67998 1.69698L6.78429 0.807517C6.84775 0.756275 6.92319 0.731447 7.00041 0.731282C7.07755 0.731282 7.15307 0.756275 7.21662 0.807517L7.14547 0.750204L8.32068 1.69679C8.51269 1.85139 8.7514 1.93479 8.99626 1.93479C9.01447 1.93479 9.0308 1.93424 9.04526 1.93389H9.04143L10.4654 1.86282H10.4663L10.4827 1.86247C10.637 1.86227 10.7747 1.96637 10.8153 2.11723L11.1857 3.4857C11.2547 3.74046 11.4148 3.96096 11.6359 4.10558L12.9762 4.98075L12.823 4.88078C12.9229 4.94577 12.9792 5.05556 12.9793 5.16947C12.9793 5.21038 12.9721 5.25145 12.9566 5.2923L12.387 6.78754L12.4521 6.61686Z" fill="black"/>
<path d="M5.36338 6.18782L4.98647 6.26189C4.96665 6.26599 4.95577 6.28172 4.9597 6.3019L5.24009 7.72856L5.22376 7.73195L4.14292 6.46257C4.12506 6.44187 4.10327 6.43561 4.07989 6.44026L3.67969 6.51901C3.65986 6.52294 3.64898 6.53864 3.65327 6.55879L4.08577 8.75854C4.0896 8.77872 4.10559 8.7896 4.12542 8.78567L4.5023 8.71156C4.52212 8.70746 4.533 8.69158 4.52918 8.6714L4.24912 7.24813L4.2658 7.2449L5.34897 8.51037C5.36682 8.53107 5.38555 8.53769 5.41235 8.53268L5.80908 8.45448C5.82888 8.45054 5.83976 8.43465 5.8355 8.41447L5.40308 6.21456C5.39917 6.19444 5.3832 6.18391 5.36338 6.18782Z" fill="black"/>
<path d="M7.68032 7.64665L6.7033 7.83877C6.69009 7.84164 6.68197 7.83628 6.67964 7.82289L6.58709 7.35279C6.5843 7.33958 6.58977 7.33174 6.60297 7.32889L7.41664 7.16893C7.43646 7.16499 7.44735 7.14927 7.44352 7.12931L7.3739 6.77598C7.36996 6.75618 7.354 6.74527 7.33417 6.74901L6.52059 6.90917C6.50735 6.91165 6.49915 6.90613 6.4965 6.89292L6.40812 6.44301C6.40544 6.42961 6.41088 6.42157 6.42409 6.41908L7.40111 6.22697C7.42093 6.22303 7.43182 6.20714 7.42752 6.18715L7.35752 5.83065C7.35359 5.81047 7.3377 5.79975 7.31779 5.80369L5.86442 6.08954C5.84416 6.09348 5.83363 6.10936 5.83757 6.12951L6.27006 8.32943C6.27433 8.34944 6.28986 8.36014 6.31012 8.35623L7.7635 8.07037C7.7834 8.06644 7.79429 8.05055 7.79002 8.03056L7.71994 7.67383C7.71614 7.65379 7.70014 7.64274 7.68032 7.64665Z" fill="black"/>
<path d="M10.3154 5.21426L9.88866 5.29816C9.86536 5.30264 9.85404 5.31549 9.85519 5.33958L9.8218 6.8241L9.81475 6.82536L9.13534 5.48114C9.12446 5.46203 9.10846 5.4515 9.08864 5.45544L8.79852 5.51239C8.77558 5.51704 8.76469 5.53274 8.76193 5.55453L8.65499 7.05352L8.64837 7.05494L8.04162 5.69593C8.03464 5.67629 8.01867 5.66596 7.99538 5.67058L7.56521 5.75485C7.54191 5.7595 7.53797 5.77416 7.54538 5.7936L8.56437 7.87801C8.57526 7.89674 8.59117 7.90765 8.61108 7.90371L8.9444 7.83801C8.96769 7.83355 8.97858 7.81747 8.98126 7.79623L9.10069 6.30832L9.10731 6.30709L9.77781 7.63949C9.78834 7.65822 9.80433 7.66913 9.82763 7.66448L10.1609 7.59878C10.1842 7.59448 10.1983 7.57772 10.1979 7.5568L10.3484 5.24229C10.3476 5.2214 10.3387 5.20962 10.3154 5.21426Z" fill="black"/>
</svg>
