<svg width="12" height="13" viewBox="0 0 12 13" fill="none" xmlns="http://www.w3.org/2000/svg">
<path d="M8.76455 4.385C8.72955 4.38 8.69455 4.38 8.65955 4.385C7.88455 4.36 7.26955 3.725 7.26955 2.945C7.26955 2.15 7.91455 1.5 8.71455 1.5C9.50955 1.5 10.1596 2.145 10.1596 2.945C10.1546 3.725 9.53955 4.36 8.76455 4.385Z" fill="#EAEAEA"/>
<path d="M10.3958 7.8502C9.8358 8.2252 9.0508 8.3652 8.3258 8.2702C8.5158 7.8602 8.6158 7.4052 8.6208 6.9252C8.6208 6.4252 8.5108 5.9502 8.3008 5.5352C9.0408 5.4352 9.8258 5.5752 10.3908 5.9502C11.1808 6.4702 11.1808 7.3252 10.3958 7.8502Z" fill="#EAEAEA"/>
<path d="M3.22008 4.385C3.25508 4.38 3.29008 4.38 3.32508 4.385C4.10008 4.36 4.71508 3.725 4.71508 2.945C4.71508 2.145 4.07008 1.5 3.27008 1.5C2.47508 1.5 1.83008 2.145 1.83008 2.945C1.83008 3.725 2.44508 4.36 3.22008 4.385Z" fill="#EAEAEA"/>
<path d="M3.27555 6.9253C3.27555 7.4103 3.38055 7.8703 3.57055 8.2853C2.86555 8.3603 2.13055 8.2103 1.59055 7.8553C0.800547 7.3303 0.800547 6.4753 1.59055 5.9503C2.12555 5.5903 2.88055 5.44529 3.59055 5.5253C3.38555 5.9453 3.27555 6.4203 3.27555 6.9253Z" fill="#EAEAEA"/>
<path d="M6.0604 8.435C6.0204 8.43 5.9754 8.43 5.9304 8.435C5.0104 8.405 4.27539 7.65 4.27539 6.72C4.28039 5.77 5.0454 5 6.0004 5C6.9504 5 7.7204 5.77 7.7204 6.72C7.7154 7.65 6.9854 8.405 6.0604 8.435Z" fill="#EAEAEA"/>
<path d="M4.43539 9.47031C3.68039 9.97531 3.68039 10.8053 4.43539 11.3053C5.2954 11.8803 6.7054 11.8803 7.5654 11.3053C8.3204 10.8003 8.3204 9.97031 7.5654 9.47031C6.7104 8.89531 5.3004 8.89531 4.43539 9.47031Z" fill="#EAEAEA"/>
</svg>
